  0
SECTION
  2
HEADER
  9
$ACADVER
  1
AC1009
  9
$INSBASE
 10
0.0
 20
0.0
 30
0.0
  9
$EXTMIN
 10
0.0
 20
0.0
 30
0.0
  9
$EXTMAX
 10
0.0
 20
0.0
 30
0.0
  0
ENDSEC
  0
SECTION
  2
TABLES
  0
TABLE
  2
VPORT
 70
0
  0
ENDTAB
  0
TABLE
  2
LTYPE
 70
1
  0
LTYPE
  2
CONTINUOUS
 70
0
  3
Solid line
 72
65
 73
0
 40
0.0
  0
ENDTAB
  0
TABLE
  2
LAYER
 70
1
  0
LAYER
  2
0
 70
64
 62
7
  6
continuous
  0
ENDTAB
  0
TABLE
  2
STYLE
 70
1
  0
STYLE
  2
STANDARD
 70
0
 40
0
 41
1.0
 50
0.0
 71
0
 42
1
 3
ARIAL.TTF
 4

  0
ENDTAB
  0
TABLE
  2
VIEW
 70
0
  0
ENDTAB
  0
ENDSEC
  0
SECTION
  2
BLOCKS
  0
BLOCK
  8
0
  2
FUSION
 70
0
 10
0.0
 20
0.0
 30
0.0
  3
FUSION
  0
CIRCLE
  8
0
 62
0
 10
8.0
 20
10.0
 30
0.0
 40
0.9
  0
CIRCLE
  8
0
 62
0
 10
8.0
 20
10.0
 30
0.0
 40
2.25
  0
LINE
  8
0
 62
0
 10
-23.95
 20
14.2006945784553
 30
0.0
 11
-23.95
 21
-14.2006945784553
 31
0.0
  0
ARC
  8
0
 62
0
 10
-24.0
 20
-16.0
 30
0.0
 40
1.8
 50
-47.074721111770984
 51
88.40824582341409
  0
LINE
  8
0
 62
0
 10
-22.774120799103898
 20
-17.318036488421498
 30
0.0
 11
-17.642157287525393
 21
-22.449999999999996
 31
0.0
  0
LINE
  8
0
 62
0
 10
-17.6421572875254
 20
-22.45
 30
0.0
 11
17.6421572875254
 21
-22.45
 31
0.0
  0
LINE
  8
0
 62
0
 10
17.6421572875254
 20
-22.45
 30
0.0
 11
22.774120799103905
 21
-17.318036488421505
 31
0.0
  0
ARC
  8
0
 62
0
 10
24.0
 20
-16.0
 30
0.0
 40
1.8
 50
91.59175417658626
 51
-132.92527888822877
  0
LINE
  8
0
 62
0
 10
23.95
 20
-14.2006945784553
 30
0.0
 11
23.95
 21
14.200694578455298
 31
0.0
  0
ARC
  8
0
 62
0
 10
24.0
 20
16.0
 30
0.0
 40
1.8
 50
132.92527888822943
 51
-91.59175417658592
  0
LINE
  8
0
 62
0
 10
22.774120799103848
 20
17.318036488421548
 30
0.0
 11
17.642157287525393
 21
22.449999999999996
 31
0.0
  0
LINE
  8
0
 62
0
 10
17.6421572875254
 20
22.45
 30
0.0
 11
-17.6421572875254
 21
22.45
 31
0.0
  0
LINE
  8
0
 62
0
 10
-17.6421572875254
 20
22.45
 30
0.0
 11
-22.774120799103905
 21
17.318036488421505
 31
0.0
  0
ARC
  8
0
 62
0
 10
-24.0
 20
16.0
 30
0.0
 40
1.8
 50
-88.40824582341396
 51
47.074721111771225
  0
LINE
  8
0
 62
0
 10
-3.5000000000000093
 20
7.2
 30
0.0
 11
-3.500000000000002
 21
12.4
 31
0.0
  0
LINE
  8
0
 62
0
 10
-3.5
 20
12.399999999999999
 30
0.0
 11
-13.0
 21
12.399999999999997
 31
0.0
  0
ARC
  8
0
 62
0
 10
-13.0
 20
12.9
 30
0.0
 40
0.500000000000002
 50
90.0
 51
-90.0
  0
LINE
  8
0
 62
0
 10
-13.0
 20
13.4
 30
0.0
 11
-3.5
 21
13.4
 31
0.0
  0
LINE
  8
0
 62
0
 10
-3.500000000000001
 20
13.4
 30
0.0
 11
-3.4999999999999982
 21
15.2
 31
0.0
  0
LINE
  8
0
 62
0
 10
-3.5
 20
15.2
 30
0.0
 11
-0.499999999999998
 21
15.2
 31
0.0
  0
LINE
  8
0
 62
0
 10
-0.49999999999999695
 20
15.2
 30
0.0
 11
-0.49999999999999856
 21
13.4
 31
0.0
  0
LINE
  8
0
 62
0
 10
-0.499999999999998
 20
13.4
 30
0.0
 11
9.0
 21
13.4
 31
0.0
  0
ARC
  8
0
 62
0
 10
9.0
 20
12.9
 30
0.0
 40
0.499999999999999
 50
-90.0
 51
90.0
  0
LINE
  8
0
 62
0
 10
9.0
 20
12.400000000000002
 30
0.0
 11
-0.4999999999999991
 21
12.399999999999999
 31
0.0
  0
LINE
  8
0
 62
0
 10
-0.4999999999999994
 20
12.4
 30
0.0
 11
-0.5000000000000039
 21
7.2
 31
0.0
  0
LINE
  8
0
 62
0
 10
-0.499999999999997
 20
7.2
 30
0.0
 11
-3.5
 21
7.2
 31
0.0
  0
LINE
  8
0
 62
0
 10
3.5
 20
1.5
 30
0.0
 11
16.2
 21
1.4999999999999993
 31
0.0
  0
LINE
  8
0
 62
0
 10
16.2
 20
1.5000000000000009
 30
0.0
 11
16.2
 21
13.0
 31
0.0
  0
ARC
  8
0
 62
0
 10
16.7
 20
13.0
 30
0.0
 40
0.5
 50
-0.0
 51
-180.0
  0
LINE
  8
0
 62
0
 10
17.2
 20
13.0
 30
0.0
 11
17.2
 21
1.5
 31
0.0
  0
LINE
  8
0
 62
0
 10
17.2
 20
1.5
 30
0.0
 11
21.5
 21
1.5
 31
0.0
  0
LINE
  8
0
 62
0
 10
21.5
 20
1.5
 30
0.0
 11
21.5
 21
-1.5
 31
0.0
  0
LINE
  8
0
 62
0
 10
21.5
 20
-1.5
 30
0.0
 11
17.2
 21
-1.5
 31
0.0
  0
LINE
  8
0
 62
0
 10
17.2
 20
-1.5
 30
0.0
 11
17.2
 21
-13.0
 31
0.0
  0
ARC
  8
0
 62
0
 10
16.7
 20
-13.0
 30
0.0
 40
0.5
 50
-180.0
 51
-0.0
  0
LINE
  8
0
 62
0
 10
16.2
 20
-13.0
 30
0.0
 11
16.2
 21
-1.5
 31
0.0
  0
LINE
  8
0
 62
0
 10
16.2
 20
-1.5
 30
0.0
 11
3.5
 21
-1.5
 31
0.0
  0
LINE
  8
0
 62
0
 10
3.5
 20
-1.5
 30
0.0
 11
3.5
 21
1.5
 31
0.0
  0
LINE
  8
0
 62
0
 10
-20.699999999941
 20
1.5000000000000024
 30
0.0
 11
-18.9
 21
1.5000000000000038
 31
0.0
  0
LINE
  8
0
 62
0
 10
-18.9
 20
1.5
 30
0.0
 11
-18.9
 21
13.0
 31
0.0
  0
ARC
  8
0
 62
0
 10
-18.4
 20
13.0
 30
0.0
 40
0.5
 50
-0.0
 51
-180.0
  0
LINE
  8
0
 62
0
 10
-17.9
 20
13.0
 30
0.0
 11
-17.9
 21
1.5
 31
0.0
  0
LINE
  8
0
 62
0
 10
-17.9
 20
1.4999999999999996
 30
0.0
 11
-12.699999999941
 21
1.4999999999999998
 31
0.0
  0
LINE
  8
0
 62
0
 10
-12.699999999941
 20
1.5
 30
0.0
 11
-12.699999999941
 21
-1.5
 31
0.0
  0
LINE
  8
0
 62
0
 10
-12.699999999941
 20
-1.5000000000000004
 30
0.0
 11
-17.9
 21
-1.5000000000000007
 31
0.0
  0
LINE
  8
0
 62
0
 10
-17.9
 20
-1.5
 30
0.0
 11
-17.9
 21
-13.0
 31
0.0
  0
ARC
  8
0
 62
0
 10
-18.4
 20
-13.0
 30
0.0
 40
0.5
 50
-180.0
 51
-0.0
  0
LINE
  8
0
 62
0
 10
-18.9
 20
-13.0
 30
0.0
 11
-18.9
 21
-1.5
 31
0.0
  0
LINE
  8
0
 62
0
 10
-18.9
 20
-1.5000000000000033
 30
0.0
 11
-20.699999999941
 21
-1.500000000000004
 31
0.0
  0
LINE
  8
0
 62
0
 10
-20.699999999941
 20
-1.5
 30
0.0
 11
-20.699999999941
 21
1.5
 31
0.0
  0
LINE
  8
0
 62
0
 10
-3.500000000000003
 20
-15.2
 30
0.0
 11
-3.5000000000000067
 21
-13.4
 31
0.0
  0
LINE
  8
0
 62
0
 10
-3.5
 20
-13.4
 30
0.0
 11
-13.0
 21
-13.4
 31
0.0
  0
ARC
  8
0
 62
0
 10
-13.0
 20
-12.9
 30
0.0
 40
0.5
 50
90.0
 51
-90.0
  0
LINE
  8
0
 62
0
 10
-13.0
 20
-12.4
 30
0.0
 11
-3.5
 21
-12.4
 31
0.0
  0
LINE
  8
0
 62
0
 10
-3.500000000000001
 20
-12.4
 30
0.0
 11
-3.499999999999999
 21
2.8000000000000007
 31
0.0
  0
LINE
  8
0
 62
0
 10
-3.5
 20
2.8
 30
0.0
 11
-0.500000000000002
 21
2.8
 31
0.0
  0
LINE
  8
0
 62
0
 10
-0.500000000000002
 20
2.8
 30
0.0
 11
-0.5000000000000018
 21
-12.4
 31
0.0
  0
LINE
  8
0
 62
0
 10
-0.500000000000002
 20
-12.4
 30
0.0
 11
9.0
 21
-12.4
 31
0.0
  0
ARC
  8
0
 62
0
 10
9.0
 20
-12.9
 30
0.0
 40
0.5
 50
-90.0
 51
90.0
  0
LINE
  8
0
 62
0
 10
9.0
 20
-13.4
 30
0.0
 11
-0.5
 21
-13.4
 31
0.0
  0
LINE
  8
0
 62
0
 10
-0.5000000000000007
 20
-13.4
 30
0.0
 11
-0.49999999999999706
 21
-15.2
 31
0.0
  0
LINE
  8
0
 62
0
 10
-0.499999999999999
 20
-15.2
 30
0.0
 11
-3.5
 21
-15.2
 31
0.0
  0
LINE
  8
0
 62
0
 10
1.0
 20
15.2
 30
0.0
 11
9.9
 21
15.2
 31
0.0
  0
ARC
  8
0
 62
0
 10
9.9
 20
13.7
 30
0.0
 40
1.5
 50
-0.0
 51
90.0
  0
LINE
  8
0
 62
0
 10
11.4
 20
13.7
 30
0.0
 11
11.4
 21
7.90710678118656
 31
0.0
  0
ARC
  8
0
 62
0
 10
9.89999999999999
 20
7.90710678118656
 30
0.0
 40
1.50000000000001
 50
-44.99999999999992
 51
-0.0
  0
LINE
  8
0
 62
0
 10
10.96066017177981
 20
6.846446609406717
 30
0.0
 11
9.553553390593278
 21
5.439339828220183
 31
0.0
  0
ARC
  8
0
 62
0
 10
8.49289321881345
 20
6.50000000000001
 30
0.0
 40
1.5
 50
-90.0
 51
-45.0
  0
LINE
  8
0
 62
0
 10
8.49289321881345
 20
5.0
 30
0.0
 11
4.32842712474619
 21
5.0
 31
0.0
  0
ARC
  8
0
 62
0
 10
4.32842712474619
 20
4.0
 30
0.0
 40
1.0
 50
90.0
 51
134.99999999999997
  0
LINE
  8
0
 62
0
 10
3.621320343559641
 20
4.707106781186548
 30
0.0
 11
1.7928932188134503
 21
2.87867965644036
 31
0.0
  0
ARC
  8
0
 62
0
 10
2.5
 20
2.17157287525381
 30
0.0
 40
1.0
 50
135.00000000000006
 51
180.0
  0
LINE
  8
0
 62
0
 10
1.5
 20
2.17157287525381
 30
0.0
 11
1.5000000000000002
 21
-2.17157287525381
 31
0.0
  0
ARC
  8
0
 62
0
 10
2.5
 20
-2.17157287525381
 30
0.0
 40
0.999999999999998
 50
180.0
 51
-135.00000000000006
  0
LINE
  8
0
 62
0
 10
1.7928932188134534
 20
-2.8786796564403567
 30
0.0
 11
3.621320343559644
 21
-4.707106781186545
 31
0.0
  0
ARC
  8
0
 62
0
 10
4.32842712474619
 20
-4.0
 30
0.0
 40
0.999999999999996
 50
-134.99999999999997
 51
-90.0
  0
LINE
  8
0
 62
0
 10
4.32842712474619
 20
-5.0
 30
0.0
 11
8.49289321881345
 21
-5.0
 31
0.0
  0
ARC
  8
0
 62
0
 10
8.49289321881345
 20
-6.50000000000001
 30
0.0
 40
1.5
 50
45.00000000000012
 51
90.0
  0
LINE
  8
0
 62
0
 10
9.553553390593278
 20
-5.439339828220182
 30
0.0
 11
10.960660171779807
 21
-6.846446609406711
 31
0.0
  0
ARC
  8
0
 62
0
 10
9.89999999999999
 20
-7.90710678118655
 30
0.0
 40
1.50000000000001
 50
-0.0
 51
45.000000000000504
  0
LINE
  8
0
 62
0
 10
11.4
 20
-7.90710678118655
 30
0.0
 11
11.4
 21
-13.7
 31
0.0
  0
ARC
  8
0
 62
0
 10
9.9
 20
-13.7
 30
0.0
 40
1.5
 50
-90.0
 51
-0.0
  0
LINE
  8
0
 62
0
 10
9.9
 20
-15.2
 30
0.0
 11
1.0
 21
-15.2
 31
0.0
  0
ARC
  8
0
 62
0
 10
1.0
 20
-14.7
 30
0.0
 40
0.500000000000009
 50
90.00000000000001
 51
-90.0
  0
LINE
  8
0
 62
0
 10
1.0
 20
-14.2
 30
0.0
 11
9.9
 21
-14.2
 31
0.0
  0
ARC
  8
0
 62
0
 10
9.9
 20
-13.7
 30
0.0
 40
0.500000000000003
 50
-90.0
 51
-0.0
  0
LINE
  8
0
 62
0
 10
10.4
 20
-13.7
 30
0.0
 11
10.4
 21
-8.11421356237309
 31
0.0
  0
ARC
  8
0
 62
0
 10
9.4
 20
-8.11421356237309
 30
0.0
 40
1.00000000000001
 50
-0.0
 51
45.00000000000198
  0
LINE
  8
0
 62
0
 10
10.107106781186523
 20
-7.407106781186517
 30
0.0
 11
8.992893218813453
 21
-6.292893218813448
 31
0.0
  0
ARC
  8
0
 62
0
 10
8.28578643762691
 20
-7.0
 30
0.0
 40
0.999999999999994
 50
45.00000000000004
 51
90.0
  0
LINE
  8
0
 62
0
 10
8.28578643762691
 20
-6.0
 30
0.0
 11
4.12132034355965
 21
-6.0
 31
0.0
  0
ARC
  8
0
 62
0
 10
4.12132034355965
 20
-4.49999999999999
 30
0.0
 40
1.50000000000001
 50
-134.99999999999994
 51
-90.0
  0
LINE
  8
0
 62
0
 10
3.060660171779819
 20
-5.560660171779821
 30
0.0
 11
0.9393398282201765
 21
-3.4393398282201812
 31
0.0
  0
ARC
  8
0
 62
0
 10
2.0
 20
-2.37867965644036
 30
0.0
 40
1.5
 50
-180.0
 51
-135.00000000000009
  0
LINE
  8
0
 62
0
 10
0.49999999999999906
 20
-2.37867965644036
 30
0.0
 11
0.4999999999999988
 21
2.37867965644036
 31
0.0
  0
ARC
  8
0
 62
0
 10
1.99999999999999
 20
2.37867965644036
 30
0.0
 40
1.5
 50
134.9999999999999
 51
-180.0
  0
LINE
  8
0
 62
0
 10
0.9393398282201766
 20
3.4393398282201804
 30
0.0
 11
3.060660171779817
 21
5.560660171779824
 31
0.0
  0
ARC
  8
0
 62
0
 10
4.12132034355965
 20
4.49999999999999
 30
0.0
 40
1.5
 50
90.0
 51
135.00000000000003
  0
LINE
  8
0
 62
0
 10
4.12132034355965
 20
5.999999999999999
 30
0.0
 11
8.2857864376269
 21
5.9999999999999964
 31
0.0
  0
ARC
  8
0
 62
0
 10
8.2857864376269
 20
7.0
 30
0.0
 40
0.999999999999994
 50
-90.0
 51
-45.00000000000004
  0
LINE
  8
0
 62
0
 10
8.992893218813448
 20
6.292893218813452
 30
0.0
 11
10.107106781186523
 21
7.407106781186527
 31
0.0
  0
ARC
  8
0
 62
0
 10
9.4
 20
8.1142135623731
 30
0.0
 40
1.00000000000001
 50
-44.999999999999986
 51
-0.0
  0
LINE
  8
0
 62
0
 10
10.4
 20
8.1142135623731
 30
0.0
 11
10.4
 21
13.7
 31
0.0
  0
ARC
  8
0
 62
0
 10
9.9
 20
13.7
 30
0.0
 40
0.499999999999998
 50
-0.0
 51
90.0
  0
LINE
  8
0
 62
0
 10
9.9
 20
14.2
 30
0.0
 11
1.0
 21
14.2
 31
0.0
  0
ARC
  8
0
 62
0
 10
1.0
 20
14.7
 30
0.0
 40
0.5
 50
90.00000000000001
 51
-90.0
  0
ARC
  8
0
 62
0
 10
-5.0
 20
-14.7
 30
0.0
 40
0.499999999999998
 50
-90.0
 51
90.0
  0
LINE
  8
0
 62
0
 10
-5.0
 20
-15.2
 30
0.0
 11
-13.9
 21
-15.2
 31
0.0
  0
ARC
  8
0
 62
0
 10
-13.9
 20
-13.7
 30
0.0
 40
1.5
 50
-180.0
 51
-90.0
  0
LINE
  8
0
 62
0
 10
-15.4
 20
-13.7
 30
0.0
 11
-15.4
 21
-7.90710678118655
 31
0.0
  0
ARC
  8
0
 62
0
 10
-13.9
 20
-7.90710678118655
 30
0.0
 40
1.50000000000001
 50
135.0
 51
-180.0
  0
LINE
  8
0
 62
0
 10
-14.96066017177981
 20
-6.8464466094067085
 30
0.0
 11
-10.992893218754478
 21
-2.8786796563813706
 31
0.0
  0
ARC
  8
0
 62
0
 10
-11.699999999941
 20
-2.1715728751948
 30
0.0
 40
1.00000000000001
 50
-45.00000000000009
 51
-0.0
  0
LINE
  8
0
 62
0
 10
-10.699999999941
 20
-2.1715728751948
 30
0.0
 11
-10.699999999941001
 21
2.17157287519481
 31
0.0
  0
ARC
  8
0
 62
0
 10
-11.699999999941
 20
2.17157287519481
 30
0.0
 40
1.00000000000001
 50
-0.0
 51
45.000000000002
  0
LINE
  8
0
 62
0
 10
-10.99289321875448
 20
2.8786796563813803
 30
0.0
 11
-14.960660171779812
 21
6.846446609406719
 31
0.0
  0
ARC
  8
0
 62
0
 10
-13.9
 20
7.90710678118656
 30
0.0
 40
1.49999999999998
 50
-180.0
 51
-134.99999999999918
  0
LINE
  8
0
 62
0
 10
-15.4
 20
7.90710678118656
 30
0.0
 11
-15.4
 21
13.7
 31
0.0
  0
ARC
  8
0
 62
0
 10
-13.9
 20
13.7
 30
0.0
 40
1.5
 50
90.0
 51
-180.0
  0
LINE
  8
0
 62
0
 10
-13.9
 20
15.2
 30
0.0
 11
-5.0
 21
15.2
 31
0.0
  0
ARC
  8
0
 62
0
 10
-5.0
 20
14.7
 30
0.0
 40
0.499999999999996
 50
-90.0
 51
90.0
  0
LINE
  8
0
 62
0
 10
-5.0
 20
14.2
 30
0.0
 11
-13.9
 21
14.2
 31
0.0
  0
ARC
  8
0
 62
0
 10
-13.9
 20
13.7
 30
0.0
 40
0.499999999999996
 50
89.9999999999998
 51
-180.0
  0
LINE
  8
0
 62
0
 10
-14.4
 20
13.7
 30
0.0
 11
-14.4
 21
8.1142135623731
 31
0.0
  0
ARC
  8
0
 62
0
 10
-13.4
 20
8.1142135623731
 30
0.0
 40
1.0
 50
-180.0
 51
-134.99999999999798
  0
LINE
  8
0
 62
0
 10
-14.107106781186522
 20
7.4071067811865285
 30
0.0
 11
-10.139339828161189
 21
3.4393398281611907
 31
0.0
  0
ARC
  8
0
 62
0
 10
-11.199999999941
 20
2.37867965638135
 30
0.0
 40
1.5
 50
0.0
 51
45.00000000000086
  0
LINE
  8
0
 62
0
 10
-9.699999999941
 20
2.37867965638135
 30
0.0
 11
-9.699999999940998
 21
-2.37867965638135
 31
0.0
  0
ARC
  8
0
 62
0
 10
-11.199999999941
 20
-2.37867965638135
 30
0.0
 40
1.5
 50
-45.00000000000003
 51
0.0
  0
LINE
  8
0
 62
0
 10
-10.139339828161189
 20
-3.43933982816119
 30
0.0
 11
-14.107106781186516
 21
-7.407106781186524
 31
0.0
  0
ARC
  8
0
 62
0
 10
-13.4
 20
-8.11421356237309
 30
0.0
 40
1.0
 50
135.0
 51
-180.0
  0
LINE
  8
0
 62
0
 10
-14.4
 20
-8.11421356237309
 30
0.0
 11
-14.4
 21
-13.7
 31
0.0
  0
ARC
  8
0
 62
0
 10
-13.9
 20
-13.7
 30
0.0
 40
0.499999999999998
 50
-180.0
 51
-90.0
  0
LINE
  8
0
 62
0
 10
-13.9
 20
-14.2
 30
0.0
 11
-5.0
 21
-14.2
 31
0.0
  0
CIRCLE
  8
0
 62
0
 10
12.65
 20
21.0
 30
0.0
 40
0.9
  0
CIRCLE
  8
0
 62
0
 10
12.65
 20
-21.0
 30
0.0
 40
0.9
  0
CIRCLE
  8
0
 62
0
 10
-22.5
 20
0.0
 30
0.0
 40
0.9
  0
LINE
  8
0
 62
0
 10
-17.3715728751948
 20
-18.2284271246872
 30
0.0
 11
-19.5284271246872
 21
-16.0715728751948
 31
0.0
  0
ARC
  8
0
 62
0
 10
-16.699999999941
 20
-13.2431457504486
 30
0.0
 40
4.0
 50
-180.0
 51
-135.0
  0
LINE
  8
0
 62
0
 10
-20.699999999941
 20
-13.2431457504486
 30
0.0
 11
-20.699999999941
 21
-4.0
 31
0.0
  0
ARC
  8
0
 62
0
 10
-20.199999999941
 20
-4.0
 30
0.0
 40
0.500000000000003
 50
-0.0
 51
-180.0
  0
LINE
  8
0
 62
0
 10
-19.7
 20
-4.0
 30
0.0
 11
-19.7
 21
-13.243145750473
 31
0.0
  0
ARC
  8
0
 62
0
 10
-16.7
 20
-13.243145750473
 30
0.0
 40
3.0
 50
-180.0
 51
-134.99999999999866
  0
LINE
  8
0
 62
0
 10
-18.8213203435596
 20
-15.364466094032702
 30
0.0
 11
-16.664466094032697
 21
-17.521320343559598
 31
0.0
  0
ARC
  8
0
 62
0
 10
-14.5431457504731
 20
-15.4
 30
0.0
 40
3.0
 50
-134.99999999999997
 51
-90.00000000000004
  0
LINE
  8
0
 62
0
 10
-14.5431457504731
 20
-18.4
 30
0.0
 11
12.843145750473102
 21
-18.4
 31
0.0
  0
ARC
  8
0
 62
0
 10
12.8431457504731
 20
-15.4
 30
0.0
 40
3.0
 50
-90.0
 51
-45.00000000000003
  0
LINE
  8
0
 62
0
 10
14.9644660940327
 20
-17.5213203435596
 30
0.0
 11
17.1213203435596
 21
-15.364466094032698
 31
0.0
  0
ARC
  8
0
 62
0
 10
15.0
 20
-13.2431457504731
 30
0.0
 40
3.0
 50
-45.00000000000003
 51
-0.0
  0
LINE
  8
0
 62
0
 10
18.0
 20
-13.2431457504731
 30
0.0
 11
18.0
 21
-4.0
 31
0.0
  0
ARC
  8
0
 62
0
 10
18.5
 20
-4.0
 30
0.0
 40
0.5
 50
-0.0
 51
-180.0
  0
LINE
  8
0
 62
0
 10
18.999999999941
 20
-4.0
 30
0.0
 11
18.999999999941
 21
-13.2431457504486
 31
0.0
  0
ARC
  8
0
 62
0
 10
14.999999999941
 20
-13.2431457504486
 30
0.0
 40
4.0
 50
-45.000000000000014
 51
0.0
  0
LINE
  8
0
 62
0
 10
17.8284271246872
 20
-16.0715728751948
 30
0.0
 11
15.671572875194801
 21
-18.228427124687204
 31
0.0
  0
ARC
  8
0
 62
0
 10
12.8431457504486
 20
-15.399999999941
 30
0.0
 40
4.0
 50
-89.99999999999997
 51
-45.0
  0
LINE
  8
0
 62
0
 10
12.8431457504486
 20
-19.399999999941
 30
0.0
 11
-14.543145750448602
 21
-19.399999999941
 31
0.0
  0
ARC
  8
0
 62
0
 10
-14.5431457504486
 20
-15.399999999941
 30
0.0
 40
4.0
 50
-134.99999999999994
 51
-90.0
  0
LINE
  8
0
 62
0
 10
-20.699999999941
 20
4.0
 30
0.0
 11
-20.699999999941
 21
13.2431457505666
 31
0.0
  0
ARC
  8
0
 62
0
 10
-16.699999999941
 20
13.2431457505666
 30
0.0
 40
4.0
 50
135.00000000000003
 51
-180.0
  0
LINE
  8
0
 62
0
 10
-19.5284271246872
 20
16.0715728753128
 30
0.0
 11
-17.3715728751948
 21
18.2284271248052
 31
0.0
  0
ARC
  8
0
 62
0
 10
-14.5431457504486
 20
15.400000000059
 30
0.0
 40
4.0
 50
90.00000000000003
 51
135.0
  0
LINE
  8
0
 62
0
 10
-14.5431457504486
 20
19.400000000059
 30
0.0
 11
12.843145750448603
 21
19.400000000059
 31
0.0
  0
ARC
  8
0
 62
0
 10
12.8431457504486
 20
15.400000000059
 30
0.0
 40
4.0
 50
45.0
 51
90.00000000000003
  0
LINE
  8
0
 62
0
 10
15.671572875194798
 20
18.2284271248052
 30
0.0
 11
17.8284271246872
 21
16.0715728753128
 31
0.0
  0
ARC
  8
0
 62
0
 10
14.999999999941
 20
13.2431457505666
 30
0.0
 40
4.0
 50
0.0
 51
45.000000000000014
  0
LINE
  8
0
 62
0
 10
18.999999999941
 20
13.2431457505666
 30
0.0
 11
18.999999999941
 21
4.0
 31
0.0
  0
ARC
  8
0
 62
0
 10
18.5
 20
4.0
 30
0.0
 40
0.5
 50
-180.0
 51
-0.0
  0
LINE
  8
0
 62
0
 10
18.0
 20
4.0
 30
0.0
 11
18.0
 21
13.2431457505911
 31
0.0
  0
ARC
  8
0
 62
0
 10
15.0
 20
13.2431457505911
 30
0.0
 40
3.0
 50
-0.0
 51
45.0
  0
LINE
  8
0
 62
0
 10
17.12132034355965
 20
15.36446609415075
 30
0.0
 11
14.964466094032698
 21
17.521320343677697
 31
0.0
  0
ARC
  8
0
 62
0
 10
12.8431457504731
 20
15.400000000118
 30
0.0
 40
3.0
 50
45.0
 51
90.0
  0
LINE
  8
0
 62
0
 10
12.8431457504731
 20
18.400000000118
 30
0.0
 11
-14.543145750473098
 21
18.400000000118
 31
0.0
  0
ARC
  8
0
 62
0
 10
-14.5431457504731
 20
15.400000000118
 30
0.0
 40
3.0
 50
90.0
 51
134.99999999999864
  0
LINE
  8
0
 62
0
 10
-16.66446609403265
 20
17.52132034367765
 30
0.0
 11
-18.8213203435596
 21
15.364466094150698
 31
0.0
  0
ARC
  8
0
 62
0
 10
-16.7
 20
13.2431457505911
 30
0.0
 40
3.0
 50
134.99999999999994
 51
180.0
  0
LINE
  8
0
 62
0
 10
-19.7
 20
13.2431457505911
 30
0.0
 11
-19.7
 21
4.0
 31
0.0
  0
ARC
  8
0
 62
0
 10
-20.199999999941
 20
4.0
 30
0.0
 40
0.500000000000003
 50
-180.0
 51
-0.0
  0
LINE
  8
0
 62
0
 10
-3.5
 20
12.399999999999999
 30
0.0
 11
-0.499999999999997
 21
12.399999999999999
 31
0.0
  0
LINE
  8
0
 62
0
 10
-0.4999999999999969
 20
13.399999999999999
 30
0.0
 11
-3.5
 21
13.399999999999999
 31
0.0
  0
LINE
  8
0
 62
0
 10
16.2
 20
1.4999999999999991
 30
0.0
 11
16.2
 21
-1.5000000000000009
 31
0.0
  0
LINE
  8
0
 62
0
 10
17.2
 20
-1.5000000000000009
 30
0.0
 11
17.2
 21
1.4999999999999991
 31
0.0
  0
LINE
  8
0
 62
0
 10
-18.9
 20
1.4999999999999991
 30
0.0
 11
-18.9
 21
-1.5000000000000009
 31
0.0
  0
LINE
  8
0
 62
0
 10
-17.9
 20
-1.5000000000000009
 30
0.0
 11
-17.9
 21
1.4999999999999991
 31
0.0
  0
LINE
  8
0
 62
0
 10
-3.5
 20
-13.400000000000002
 30
0.0
 11
-0.5
 21
-13.400000000000002
 31
0.0
  0
LINE
  8
0
 62
0
 10
-0.5000000000000018
 20
-12.400000000000002
 30
0.0
 11
-3.5
 21
-12.400000000000002
 31
0.0
  0
CIRCLE
  8
0
 62
0
 10
8.00000000000001
 20
-9.99999999999999
 30
0.0
 40
2.25
  0
CIRCLE
  8
0
 62
0
 10
8.00000000000001
 20
-9.99999999999999
 30
0.0
 40
0.9
  0
CIRCLE
  8
0
 62
0
 10
-12.0
 20
-9.99999999999999
 30
0.0
 40
2.25
  0
CIRCLE
  8
0
 62
0
 10
-12.0
 20
-9.99999999999999
 30
0.0
 40
0.9
  0
CIRCLE
  8
0
 62
0
 10
-12.0
 20
10.0
 30
0.0
 40
2.25
  0
CIRCLE
  8
0
 62
0
 10
-12.0
 20
10.0
 30
0.0
 40
0.900000000000001
  0
ENDBLK
  0
ENDSEC
  0
SECTION
  2
ENTITIES
  0
INSERT
  2
FUSION
  8
0
 62
0
 10
0.0
 20
0.0
 30
0.0
  0
ENDSEC
  0
EOF
