<?xml version="1.0" encoding="UTF-8" standalone="no"?>
<svg
   xmlns:dc="http://purl.org/dc/elements/1.1/"
   xmlns:cc="http://creativecommons.org/ns#"
   xmlns:rdf="http://www.w3.org/1999/02/22-rdf-syntax-ns#"
   xmlns:svg="http://www.w3.org/2000/svg"
   xmlns="http://www.w3.org/2000/svg"
   xmlns:xlink="http://www.w3.org/1999/xlink"
   xmlns:sodipodi="http://sodipodi.sourceforge.net/DTD/sodipodi-0.dtd"
   xmlns:inkscape="http://www.inkscape.org/namespaces/inkscape"
   width="793.700787402"
   height="1122.51968504"
   version="1.1"
   id="svg403"
   sodipodi:docname="xy_stage.svg"
   inkscape:version="0.92.5 (2060ec1f9f, 2020-04-08)">
  <metadata
     id="metadata407">
    <rdf:RDF>
      <cc:Work
         rdf:about="">
        <dc:format>image/svg+xml</dc:format>
        <dc:type
           rdf:resource="http://purl.org/dc/dcmitype/StillImage" />
        <dc:title></dc:title>
      </cc:Work>
    </rdf:RDF>
  </metadata>
  <sodipodi:namedview
     pagecolor="#ffffff"
     bordercolor="#666666"
     borderopacity="1"
     objecttolerance="10"
     gridtolerance="10"
     guidetolerance="10"
     inkscape:pageopacity="0"
     inkscape:pageshadow="2"
     inkscape:window-width="2825"
     inkscape:window-height="1596"
     id="namedview405"
     showgrid="false"
     inkscape:zoom="4.7572177"
     inkscape:cx="8.9875888"
     inkscape:cy="2.4401743"
     inkscape:window-x="55"
     inkscape:window-y="24"
     inkscape:window-maximized="1"
     inkscape:current-layer="g401" />
  <desc
     id="desc2">/home/janhenrik/kiCAD/MLCC_Piezoelectric/xy_stage/xy_stage.dxf - scale = 1.000000, origin = (0.000000, 0.000000), method = manual</desc>
  <defs
     id="defs397">
    <marker
       id="DistanceX"
       orient="auto"
       refX="0.0"
       refY="0.0"
       style="overflow:visible">
      <path
         d="M 3,-3 L -3,3 M 0,-5 L  0,5"
         style="stroke:#000000; stroke-width:0.5"
         id="path4" />
    </marker>
    <pattern
       height="8"
       id="Hatch"
       patternUnits="userSpaceOnUse"
       width="8"
       x="0"
       y="0">
      <path
         d="M8 4 l-4,4"
         linecap="square"
         stroke="#000000"
         stroke-width="0.25"
         id="path7" />
      <path
         d="M6 2 l-4,4"
         linecap="square"
         stroke="#000000"
         stroke-width="0.25"
         id="path9" />
      <path
         d="M4 0 l-4,4"
         linecap="square"
         stroke="#000000"
         stroke-width="0.25"
         id="path11" />
    </pattern>
    <symbol
       id="FUSION">
      <path
         d="M 33.637795,1084.724409 A 3.401575,3.401575 -0.000000 1 0 26.834646,1084.724409 3.401575,3.401575 -0.000000 1 0 33.637795,1084.724409 z"
         style="stroke:#000000;fill:none"
         id="path14" />
      <path
         d="M 38.740157,1084.724409 A 8.503937,8.503937 -0.000000 1 0 21.732283,1084.724409 8.503937,8.503937 -0.000000 1 0 38.740157,1084.724409 z"
         style="stroke:#000000;fill:none"
         id="path16" />
      <path
         d="M -90.519685,1068.847769 -90.519685,1176.191602"
         style="stroke:#000000;fill:none"
         id="path18" />
      <path
         d="M -86.075417,1187.973681 A 6.803150,6.803150 -0.000000 0 0 -90.519685,1176.191602"
         style="stroke:#000000;fill:none"
         id="path20" />
      <path
         d="M -86.075417,1187.973681 -66.679020,1207.370079"
         style="stroke:#000000;fill:none"
         id="path22" />
      <path
         d="M -66.679020,1207.370079 66.679020,1207.370079"
         style="stroke:#000000;fill:none"
         id="path24" />
      <path
         d="M 66.679020,1207.370079 86.075417,1187.973681"
         style="stroke:#000000;fill:none"
         id="path26" />
      <path
         d="M 90.519685,1176.191602 A 6.803150,6.803150 -0.000000 0 0 86.075417,1187.973681"
         style="stroke:#000000;fill:none"
         id="path28" />
      <path
         d="M 90.519685,1176.191602 90.519685,1068.847769"
         style="stroke:#000000;fill:none"
         id="path30" />
      <path
         d="M 86.075417,1057.065689 A 6.803150,6.803150 -0.000000 0 0 90.519685,1068.847769"
         style="stroke:#000000;fill:none"
         id="path32" />
      <path
         d="M 86.075417,1057.065689 66.679020,1037.669291"
         style="stroke:#000000;fill:none"
         id="path34" />
      <path
         d="M 66.679020,1037.669291 -66.679020,1037.669291"
         style="stroke:#000000;fill:none"
         id="path36" />
      <path
         d="M -66.679020,1037.669291 -86.075417,1057.065689"
         style="stroke:#000000;fill:none"
         id="path38" />
      <path
         d="M -90.519685,1068.847769 A 6.803150,6.803150 -0.000000 0 0 -86.075417,1057.065689"
         style="stroke:#000000;fill:none"
         id="path40" />
      <path
         d="M -13.228346,1095.307087 -13.228346,1075.653543"
         style="stroke:#000000;fill:none"
         id="path42" />
      <path
         d="M -13.228346,1075.653543 -49.133858,1075.653543"
         style="stroke:#000000;fill:none"
         id="path44" />
      <path
         d="M -49.133858,1071.874016 A 1.889764,1.889764 -0.000000 0 0 -49.133858,1075.653543"
         style="stroke:#000000;fill:none"
         id="path46" />
      <path
         d="M -49.133858,1071.874016 -13.228346,1071.874016"
         style="stroke:#000000;fill:none"
         id="path48" />
      <path
         d="M -13.228346,1071.874016 -13.228346,1065.070866"
         style="stroke:#000000;fill:none"
         id="path50" />
      <path
         d="M -13.228346,1065.070866 -1.889764,1065.070866"
         style="stroke:#000000;fill:none"
         id="path52" />
      <path
         d="M -1.889764,1065.070866 -1.889764,1071.874016"
         style="stroke:#000000;fill:none"
         id="path54" />
      <path
         d="M -1.889764,1071.874016 34.015748,1071.874016"
         style="stroke:#000000;fill:none"
         id="path56" />
      <path
         d="M 34.015748,1075.653543 A 1.889764,1.889764 -0.000000 0 0 34.015748,1071.874016"
         style="stroke:#000000;fill:none"
         id="path58" />
      <path
         d="M 34.015748,1075.653543 -1.889764,1075.653543"
         style="stroke:#000000;fill:none"
         id="path60" />
      <path
         d="M -1.889764,1075.653543 -1.889764,1095.307087"
         style="stroke:#000000;fill:none"
         id="path62" />
      <path
         d="M -1.889764,1095.307087 -13.228346,1095.307087"
         style="stroke:#000000;fill:none"
         id="path64" />
      <path
         d="M 13.228346,1116.850394 61.228346,1116.850394"
         style="stroke:#000000;fill:none"
         id="path66" />
      <path
         d="M 61.228346,1116.850394 61.228346,1073.385827"
         style="stroke:#000000;fill:none"
         id="path68" />
      <path
         d="M 65.007874,1073.385827 A 1.889764,1.889764 -0.000000 0 0 61.228346,1073.385827"
         style="stroke:#000000;fill:none"
         id="path70" />
      <path
         d="M 65.007874,1073.385827 65.007874,1116.850394"
         style="stroke:#000000;fill:none"
         id="path72" />
      <path
         d="M 65.007874,1116.850394 81.259843,1116.850394"
         style="stroke:#000000;fill:none"
         id="path74" />
      <path
         d="M 81.259843,1116.850394 81.259843,1128.188976"
         style="stroke:#000000;fill:none"
         id="path76" />
      <path
         d="M 81.259843,1128.188976 65.007874,1128.188976"
         style="stroke:#000000;fill:none"
         id="path78" />
      <path
         d="M 65.007874,1128.188976 65.007874,1171.653543"
         style="stroke:#000000;fill:none"
         id="path80" />
      <path
         d="M 61.228346,1171.653543 A 1.889764,1.889764 -0.000000 0 0 65.007874,1171.653543"
         style="stroke:#000000;fill:none"
         id="path82" />
      <path
         d="M 61.228346,1171.653543 61.228346,1128.188976"
         style="stroke:#000000;fill:none"
         id="path84" />
      <path
         d="M 61.228346,1128.188976 13.228346,1128.188976"
         style="stroke:#000000;fill:none"
         id="path86" />
      <path
         d="M 13.228346,1128.188976 13.228346,1116.850394"
         style="stroke:#000000;fill:none"
         id="path88" />
      <path
         d="M -78.236220,1116.850394 -71.433071,1116.850394"
         style="stroke:#000000;fill:none"
         id="path90" />
      <path
         d="M -71.433071,1116.850394 -71.433071,1073.385827"
         style="stroke:#000000;fill:none"
         id="path92" />
      <path
         d="M -67.653543,1073.385827 A 1.889764,1.889764 -0.000000 0 0 -71.433071,1073.385827"
         style="stroke:#000000;fill:none"
         id="path94" />
      <path
         d="M -67.653543,1073.385827 -67.653543,1116.850394"
         style="stroke:#000000;fill:none"
         id="path96" />
      <path
         d="M -67.653543,1116.850394 -48.000000,1116.850394"
         style="stroke:#000000;fill:none"
         id="path98" />
      <path
         d="M -48.000000,1116.850394 -48.000000,1128.188976"
         style="stroke:#000000;fill:none"
         id="path100" />
      <path
         d="M -48.000000,1128.188976 -67.653543,1128.188976"
         style="stroke:#000000;fill:none"
         id="path102" />
      <path
         d="M -67.653543,1128.188976 -67.653543,1171.653543"
         style="stroke:#000000;fill:none"
         id="path104" />
      <path
         d="M -71.433071,1171.653543 A 1.889764,1.889764 -0.000000 0 0 -67.653543,1171.653543"
         style="stroke:#000000;fill:none"
         id="path106" />
      <path
         d="M -71.433071,1171.653543 -71.433071,1128.188976"
         style="stroke:#000000;fill:none"
         id="path108" />
      <path
         d="M -71.433071,1128.188976 -78.236220,1128.188976"
         style="stroke:#000000;fill:none"
         id="path110" />
      <path
         d="M -78.236220,1128.188976 -78.236220,1116.850394"
         style="stroke:#000000;fill:none"
         id="path112" />
      <path
         d="M -13.228346,1179.968504 -13.228346,1173.165354"
         style="stroke:#000000;fill:none"
         id="path114" />
      <path
         d="M -13.228346,1173.165354 -49.133858,1173.165354"
         style="stroke:#000000;fill:none"
         id="path116" />
      <path
         d="M -49.133858,1169.385827 A 1.889764,1.889764 -0.000000 0 0 -49.133858,1173.165354"
         style="stroke:#000000;fill:none"
         id="path118" />
      <path
         d="M -49.133858,1169.385827 -13.228346,1169.385827"
         style="stroke:#000000;fill:none"
         id="path120" />
      <path
         d="M -13.228346,1169.385827 -13.228346,1111.937008"
         style="stroke:#000000;fill:none"
         id="path122" />
      <path
         d="M -13.228346,1111.937008 -1.889764,1111.937008"
         style="stroke:#000000;fill:none"
         id="path124" />
      <path
         d="M -1.889764,1111.937008 -1.889764,1169.385827"
         style="stroke:#000000;fill:none"
         id="path126" />
      <path
         d="M -1.889764,1169.385827 34.015748,1169.385827"
         style="stroke:#000000;fill:none"
         id="path128" />
      <path
         d="M 34.015748,1173.165354 A 1.889764,1.889764 -0.000000 0 0 34.015748,1169.385827"
         style="stroke:#000000;fill:none"
         id="path130" />
      <path
         d="M 34.015748,1173.165354 -1.889764,1173.165354"
         style="stroke:#000000;fill:none"
         id="path132" />
      <path
         d="M -1.889764,1173.165354 -1.889764,1179.968504"
         style="stroke:#000000;fill:none"
         id="path134" />
      <path
         d="M -1.889764,1179.968504 -13.228346,1179.968504"
         style="stroke:#000000;fill:none"
         id="path136" />
      <path
         d="M 3.779528,1065.070866 37.417323,1065.070866"
         style="stroke:#000000;fill:none"
         id="path138" />
      <path
         d="M 43.086614,1070.740157 A 5.669291,5.669291 -0.000000 0 0 37.417323,1065.070866"
         style="stroke:#000000;fill:none"
         id="path140" />
      <path
         d="M 43.086614,1070.740157 43.086614,1092.634557"
         style="stroke:#000000;fill:none"
         id="path142" />
      <path
         d="M 41.426117,1096.643351 A 5.669291,5.669291 -0.000000 0 0 43.086614,1092.634557"
         style="stroke:#000000;fill:none"
         id="path144" />
      <path
         d="M 41.426117,1096.643351 36.107918,1101.961550"
         style="stroke:#000000;fill:none"
         id="path146" />
      <path
         d="M 32.099124,1103.622047 A 5.669291,5.669291 -0.000000 0 0 36.107918,1101.961550"
         style="stroke:#000000;fill:none"
         id="path148" />
      <path
         d="M 32.099124,1103.622047 16.359410,1103.622047"
         style="stroke:#000000;fill:none"
         id="path150" />
      <path
         d="M 16.359410,1103.622047 A 3.779528,3.779528 -0.000000 0 0 13.686880,1104.729045"
         style="stroke:#000000;fill:none"
         id="path152" />
      <path
         d="M 13.686880,1104.729045 6.776289,1111.639636"
         style="stroke:#000000;fill:none"
         id="path154" />
      <path
         d="M 6.776289,1111.639636 A 3.779528,3.779528 -0.000000 0 0 5.669291,1114.312166"
         style="stroke:#000000;fill:none"
         id="path156" />
      <path
         d="M 5.669291,1114.312166 5.669291,1130.727205"
         style="stroke:#000000;fill:none"
         id="path158" />
      <path
         d="M 5.669291,1130.727205 A 3.779528,3.779528 -0.000000 0 0 6.776289,1133.399734"
         style="stroke:#000000;fill:none"
         id="path160" />
      <path
         d="M 6.776289,1133.399734 13.686880,1140.310325"
         style="stroke:#000000;fill:none"
         id="path162" />
      <path
         d="M 13.686880,1140.310325 A 3.779528,3.779528 -0.000000 0 0 16.359410,1141.417323"
         style="stroke:#000000;fill:none"
         id="path164" />
      <path
         d="M 16.359410,1141.417323 32.099124,1141.417323"
         style="stroke:#000000;fill:none"
         id="path166" />
      <path
         d="M 36.107918,1143.077820 A 5.669291,5.669291 -0.000000 0 0 32.099124,1141.417323"
         style="stroke:#000000;fill:none"
         id="path168" />
      <path
         d="M 36.107918,1143.077820 41.426117,1148.396019"
         style="stroke:#000000;fill:none"
         id="path170" />
      <path
         d="M 43.086614,1152.404813 A 5.669291,5.669291 -0.000000 0 0 41.426117,1148.396019"
         style="stroke:#000000;fill:none"
         id="path172" />
      <path
         d="M 43.086614,1152.404813 43.086614,1174.299213"
         style="stroke:#000000;fill:none"
         id="path174" />
      <path
         d="M 37.417323,1179.968504 A 5.669291,5.669291 -0.000000 0 0 43.086614,1174.299213"
         style="stroke:#000000;fill:none"
         id="path176" />
      <path
         d="M 37.417323,1179.968504 3.779528,1179.968504"
         style="stroke:#000000;fill:none"
         id="path178" />
      <path
         d="M 3.779528,1176.188976 A 1.889764,1.889764 -0.000000 0 0 3.779528,1179.968504"
         style="stroke:#000000;fill:none"
         id="path180" />
      <path
         d="M 3.779528,1176.188976 37.417323,1176.188976"
         style="stroke:#000000;fill:none"
         id="path182" />
      <path
         d="M 37.417323,1176.188976 A 1.889764,1.889764 -0.000000 0 0 39.307087,1174.299213"
         style="stroke:#000000;fill:none"
         id="path184" />
      <path
         d="M 39.307087,1174.299213 39.307087,1153.187579"
         style="stroke:#000000;fill:none"
         id="path186" />
      <path
         d="M 39.307087,1153.187579 A 3.779528,3.779528 -0.000000 0 0 38.200089,1150.515049"
         style="stroke:#000000;fill:none"
         id="path188" />
      <path
         d="M 38.200089,1150.515049 33.988888,1146.303848"
         style="stroke:#000000;fill:none"
         id="path190" />
      <path
         d="M 33.988888,1146.303848 A 3.779528,3.779528 -0.000000 0 0 31.316358,1145.196850"
         style="stroke:#000000;fill:none"
         id="path192" />
      <path
         d="M 31.316358,1145.196850 15.576644,1145.196850"
         style="stroke:#000000;fill:none"
         id="path194" />
      <path
         d="M 11.567849,1143.536353 A 5.669291,5.669291 -0.000000 0 0 15.576644,1145.196850"
         style="stroke:#000000;fill:none"
         id="path196" />
      <path
         d="M 11.567849,1143.536353 3.550261,1135.518765"
         style="stroke:#000000;fill:none"
         id="path198" />
      <path
         d="M 1.889764,1131.509970 A 5.669291,5.669291 -0.000000 0 0 3.550261,1135.518765"
         style="stroke:#000000;fill:none"
         id="path200" />
      <path
         d="M 1.889764,1131.509970 1.889764,1113.529400"
         style="stroke:#000000;fill:none"
         id="path202" />
      <path
         d="M 3.550261,1109.520605 A 5.669291,5.669291 -0.000000 0 0 1.889764,1113.529400"
         style="stroke:#000000;fill:none"
         id="path204" />
      <path
         d="M 3.550261,1109.520605 11.567849,1101.503017"
         style="stroke:#000000;fill:none"
         id="path206" />
      <path
         d="M 15.576644,1099.842520 A 5.669291,5.669291 -0.000000 0 0 11.567849,1101.503017"
         style="stroke:#000000;fill:none"
         id="path208" />
      <path
         d="M 15.576644,1099.842520 31.316358,1099.842520"
         style="stroke:#000000;fill:none"
         id="path210" />
      <path
         d="M 31.316358,1099.842520 A 3.779528,3.779528 -0.000000 0 0 33.988888,1098.735522"
         style="stroke:#000000;fill:none"
         id="path212" />
      <path
         d="M 33.988888,1098.735522 38.200089,1094.524321"
         style="stroke:#000000;fill:none"
         id="path214" />
      <path
         d="M 38.200089,1094.524321 A 3.779528,3.779528 -0.000000 0 0 39.307087,1091.851791"
         style="stroke:#000000;fill:none"
         id="path216" />
      <path
         d="M 39.307087,1091.851791 39.307087,1070.740157"
         style="stroke:#000000;fill:none"
         id="path218" />
      <path
         d="M 39.307087,1070.740157 A 1.889764,1.889764 -0.000000 0 0 37.417323,1068.850394"
         style="stroke:#000000;fill:none"
         id="path220" />
      <path
         d="M 37.417323,1068.850394 3.779528,1068.850394"
         style="stroke:#000000;fill:none"
         id="path222" />
      <path
         d="M 3.779528,1065.070866 A 1.889764,1.889764 -0.000000 0 0 3.779528,1068.850394"
         style="stroke:#000000;fill:none"
         id="path224" />
      <path
         d="M -18.897638,1179.968504 A 1.889764,1.889764 -0.000000 0 0 -18.897638,1176.188976"
         style="stroke:#000000;fill:none"
         id="path226" />
      <path
         d="M -18.897638,1179.968504 -52.535433,1179.968504"
         style="stroke:#000000;fill:none"
         id="path228" />
      <path
         d="M -58.204724,1174.299213 A 5.669291,5.669291 -0.000000 0 0 -52.535433,1179.968504"
         style="stroke:#000000;fill:none"
         id="path230" />
      <path
         d="M -58.204724,1174.299213 -58.204724,1152.404813"
         style="stroke:#000000;fill:none"
         id="path232" />
      <path
         d="M -56.544227,1148.396019 A 5.669291,5.669291 -0.000000 0 0 -58.204724,1152.404813"
         style="stroke:#000000;fill:none"
         id="path234" />
      <path
         d="M -56.544227,1148.396019 -41.547943,1133.399734"
         style="stroke:#000000;fill:none"
         id="path236" />
      <path
         d="M -41.547943,1133.399734 A 3.779528,3.779528 -0.000000 0 0 -40.440945,1130.727205"
         style="stroke:#000000;fill:none"
         id="path238" />
      <path
         d="M -40.440945,1130.727205 -40.440945,1114.312166"
         style="stroke:#000000;fill:none"
         id="path240" />
      <path
         d="M -40.440945,1114.312166 A 3.779528,3.779528 -0.000000 0 0 -41.547943,1111.639636"
         style="stroke:#000000;fill:none"
         id="path242" />
      <path
         d="M -41.547943,1111.639636 -56.544227,1096.643351"
         style="stroke:#000000;fill:none"
         id="path244" />
      <path
         d="M -58.204724,1092.634557 A 5.669291,5.669291 -0.000000 0 0 -56.544227,1096.643351"
         style="stroke:#000000;fill:none"
         id="path246" />
      <path
         d="M -58.204724,1092.634557 -58.204724,1070.740157"
         style="stroke:#000000;fill:none"
         id="path248" />
      <path
         d="M -52.535433,1065.070866 A 5.669291,5.669291 -0.000000 0 0 -58.204724,1070.740157"
         style="stroke:#000000;fill:none"
         id="path250" />
      <path
         d="M -52.535433,1065.070866 -18.897638,1065.070866"
         style="stroke:#000000;fill:none"
         id="path252" />
      <path
         d="M -18.897638,1068.850394 A 1.889764,1.889764 -0.000000 0 0 -18.897638,1065.070866"
         style="stroke:#000000;fill:none"
         id="path254" />
      <path
         d="M -18.897638,1068.850394 -52.535433,1068.850394"
         style="stroke:#000000;fill:none"
         id="path256" />
      <path
         d="M -52.535433,1068.850394 A 1.889764,1.889764 -0.000000 0 0 -54.425197,1070.740157"
         style="stroke:#000000;fill:none"
         id="path258" />
      <path
         d="M -54.425197,1070.740157 -54.425197,1091.851791"
         style="stroke:#000000;fill:none"
         id="path260" />
      <path
         d="M -54.425197,1091.851791 A 3.779528,3.779528 -0.000000 0 0 -53.318199,1094.524321"
         style="stroke:#000000;fill:none"
         id="path262" />
      <path
         d="M -53.318199,1094.524321 -38.321914,1109.520605"
         style="stroke:#000000;fill:none"
         id="path264" />
      <path
         d="M -36.661417,1113.529400 A 5.669291,5.669291 -0.000000 0 0 -38.321914,1109.520605"
         style="stroke:#000000;fill:none"
         id="path266" />
      <path
         d="M -36.661417,1113.529400 -36.661417,1131.509970"
         style="stroke:#000000;fill:none"
         id="path268" />
      <path
         d="M -38.321914,1135.518765 A 5.669291,5.669291 -0.000000 0 0 -36.661417,1131.509970"
         style="stroke:#000000;fill:none"
         id="path270" />
      <path
         d="M -38.321914,1135.518765 -53.318199,1150.515049"
         style="stroke:#000000;fill:none"
         id="path272" />
      <path
         d="M -53.318199,1150.515049 A 3.779528,3.779528 -0.000000 0 0 -54.425197,1153.187579"
         style="stroke:#000000;fill:none"
         id="path274" />
      <path
         d="M -54.425197,1153.187579 -54.425197,1174.299213"
         style="stroke:#000000;fill:none"
         id="path276" />
      <path
         d="M -54.425197,1174.299213 A 1.889764,1.889764 -0.000000 0 0 -52.535433,1176.188976"
         style="stroke:#000000;fill:none"
         id="path278" />
      <path
         d="M -52.535433,1176.188976 -18.897638,1176.188976"
         style="stroke:#000000;fill:none"
         id="path280" />
      <path
         d="M 51.212598,1043.149606 A 3.401575,3.401575 -0.000000 1 0 44.409449,1043.149606 3.401575,3.401575 -0.000000 1 0 51.212598,1043.149606 z"
         style="stroke:#000000;fill:none"
         id="path282" />
      <path
         d="M 51.212598,1201.889764 A 3.401575,3.401575 -0.000000 1 0 44.409449,1201.889764 3.401575,3.401575 -0.000000 1 0 51.212598,1201.889764 z"
         style="stroke:#000000;fill:none"
         id="path284" />
      <path
         d="M -81.637795,1122.519685 A 3.401575,3.401575 -0.000000 1 0 -88.440945,1122.519685 3.401575,3.401575 -0.000000 1 0 -81.637795,1122.519685 z"
         style="stroke:#000000;fill:none"
         id="path286" />
      <path
         d="M -65.656338,1191.414528 -73.808229,1183.262638"
         style="stroke:#000000;fill:none"
         id="path288" />
      <path
         d="M -78.236220,1172.572519 A 15.118110,15.118110 -0.000000 0 0 -73.808229,1183.262638"
         style="stroke:#000000;fill:none"
         id="path290" />
      <path
         d="M -78.236220,1172.572519 -78.236220,1137.637795"
         style="stroke:#000000;fill:none"
         id="path292" />
      <path
         d="M -74.456693,1137.637795 A 1.889764,1.889764 -0.000000 0 0 -78.236220,1137.637795"
         style="stroke:#000000;fill:none"
         id="path294" />
      <path
         d="M -74.456693,1137.637795 -74.456693,1172.572519"
         style="stroke:#000000;fill:none"
         id="path296" />
      <path
         d="M -74.456693,1172.572519 A 11.338583,11.338583 -0.000000 0 0 -71.135699,1180.590108"
         style="stroke:#000000;fill:none"
         id="path298" />
      <path
         d="M -71.135699,1180.590108 -62.983809,1188.741998"
         style="stroke:#000000;fill:none"
         id="path300" />
      <path
         d="M -62.983809,1188.741998 A 11.338583,11.338583 -0.000000 0 0 -54.966220,1192.062992"
         style="stroke:#000000;fill:none"
         id="path302" />
      <path
         d="M -54.966220,1192.062992 48.541023,1192.062992"
         style="stroke:#000000;fill:none"
         id="path304" />
      <path
         d="M 48.541023,1192.062992 A 11.338583,11.338583 -0.000000 0 0 56.558612,1188.741998"
         style="stroke:#000000;fill:none"
         id="path306" />
      <path
         d="M 56.558612,1188.741998 64.710502,1180.590108"
         style="stroke:#000000;fill:none"
         id="path308" />
      <path
         d="M 64.710502,1180.590108 A 11.338583,11.338583 -0.000000 0 0 68.031496,1172.572519"
         style="stroke:#000000;fill:none"
         id="path310" />
      <path
         d="M 68.031496,1172.572519 68.031496,1137.637795"
         style="stroke:#000000;fill:none"
         id="path312" />
      <path
         d="M 71.811024,1137.637795 A 1.889764,1.889764 -0.000000 0 0 68.031496,1137.637795"
         style="stroke:#000000;fill:none"
         id="path314" />
      <path
         d="M 71.811024,1137.637795 71.811024,1172.572519"
         style="stroke:#000000;fill:none"
         id="path316" />
      <path
         d="M 67.383032,1183.262638 A 15.118110,15.118110 -0.000000 0 0 71.811024,1172.572519"
         style="stroke:#000000;fill:none"
         id="path318" />
      <path
         d="M 67.383032,1183.262638 59.231142,1191.414528"
         style="stroke:#000000;fill:none"
         id="path320" />
      <path
         d="M 48.541023,1195.842520 A 15.118110,15.118110 -0.000000 0 0 59.231142,1191.414528"
         style="stroke:#000000;fill:none"
         id="path322" />
      <path
         d="M 48.541023,1195.842520 -54.966220,1195.842520"
         style="stroke:#000000;fill:none"
         id="path324" />
      <path
         d="M -65.656338,1191.414528 A 15.118110,15.118110 -0.000000 0 0 -54.966220,1195.842520"
         style="stroke:#000000;fill:none"
         id="path326" />
      <path
         d="M -78.236220,1107.401575 -78.236220,1072.466851"
         style="stroke:#000000;fill:none"
         id="path328" />
      <path
         d="M -73.808229,1061.776732 A 15.118110,15.118110 -0.000000 0 0 -78.236220,1072.466851"
         style="stroke:#000000;fill:none"
         id="path330" />
      <path
         d="M -73.808229,1061.776732 -65.656338,1053.624842"
         style="stroke:#000000;fill:none"
         id="path332" />
      <path
         d="M -54.966220,1049.196850 A 15.118110,15.118110 -0.000000 0 0 -65.656338,1053.624842"
         style="stroke:#000000;fill:none"
         id="path334" />
      <path
         d="M -54.966220,1049.196850 48.541023,1049.196850"
         style="stroke:#000000;fill:none"
         id="path336" />
      <path
         d="M 59.231142,1053.624842 A 15.118110,15.118110 -0.000000 0 0 48.541023,1049.196850"
         style="stroke:#000000;fill:none"
         id="path338" />
      <path
         d="M 59.231142,1053.624842 67.383032,1061.776732"
         style="stroke:#000000;fill:none"
         id="path340" />
      <path
         d="M 71.811024,1072.466851 A 15.118110,15.118110 -0.000000 0 0 67.383032,1061.776732"
         style="stroke:#000000;fill:none"
         id="path342" />
      <path
         d="M 71.811024,1072.466851 71.811024,1107.401575"
         style="stroke:#000000;fill:none"
         id="path344" />
      <path
         d="M 68.031496,1107.401575 A 1.889764,1.889764 -0.000000 0 0 71.811024,1107.401575"
         style="stroke:#000000;fill:none"
         id="path346" />
      <path
         d="M 68.031496,1107.401575 68.031496,1072.466851"
         style="stroke:#000000;fill:none"
         id="path348" />
      <path
         d="M 68.031496,1072.466851 A 11.338583,11.338583 -0.000000 0 0 64.710502,1064.449262"
         style="stroke:#000000;fill:none"
         id="path350" />
      <path
         d="M 64.710502,1064.449262 56.558612,1056.297372"
         style="stroke:#000000;fill:none"
         id="path352" />
      <path
         d="M 56.558612,1056.297372 A 11.338583,11.338583 -0.000000 0 0 48.541023,1052.976378"
         style="stroke:#000000;fill:none"
         id="path354" />
      <path
         d="M 48.541023,1052.976378 -54.966220,1052.976378"
         style="stroke:#000000;fill:none"
         id="path356" />
      <path
         d="M -54.966220,1052.976378 A 11.338583,11.338583 -0.000000 0 0 -62.983809,1056.297372"
         style="stroke:#000000;fill:none"
         id="path358" />
      <path
         d="M -62.983809,1056.297372 -71.135699,1064.449262"
         style="stroke:#000000;fill:none"
         id="path360" />
      <path
         d="M -71.135699,1064.449262 A 11.338583,11.338583 -0.000000 0 0 -74.456693,1072.466851"
         style="stroke:#000000;fill:none"
         id="path362" />
      <path
         d="M -74.456693,1072.466851 -74.456693,1107.401575"
         style="stroke:#000000;fill:none"
         id="path364" />
      <path
         d="M -78.236220,1107.401575 A 1.889764,1.889764 -0.000000 0 0 -74.456693,1107.401575"
         style="stroke:#000000;fill:none"
         id="path366" />
      <path
         d="M -13.228346,1075.653543 -1.889764,1075.653543"
         style="stroke:#000000;fill:none"
         id="path368" />
      <path
         d="M -1.889764,1071.874016 -13.228346,1071.874016"
         style="stroke:#000000;fill:none"
         id="path370" />
      <path
         d="M 61.228346,1116.850394 61.228346,1128.188976"
         style="stroke:#000000;fill:none"
         id="path372" />
      <path
         d="M 65.007874,1128.188976 65.007874,1116.850394"
         style="stroke:#000000;fill:none"
         id="path374" />
      <path
         d="M -71.433071,1116.850394 -71.433071,1128.188976"
         style="stroke:#000000;fill:none"
         id="path376" />
      <path
         d="M -67.653543,1128.188976 -67.653543,1116.850394"
         style="stroke:#000000;fill:none"
         id="path378" />
      <path
         d="M -13.228346,1173.165354 -1.889764,1173.165354"
         style="stroke:#000000;fill:none"
         id="path380" />
      <path
         d="M -1.889764,1169.385827 -13.228346,1169.385827"
         style="stroke:#000000;fill:none"
         id="path382" />
      <path
         d="M 38.740157,1160.314961 A 8.503937,8.503937 -0.000000 1 0 21.732283,1160.314961 8.503937,8.503937 -0.000000 1 0 38.740157,1160.314961 z"
         style="stroke:#000000;fill:none"
         id="path384" />
      <path
         d="M 33.637795,1160.314961 A 3.401575,3.401575 -0.000000 1 0 26.834646,1160.314961 3.401575,3.401575 -0.000000 1 0 33.637795,1160.314961 z"
         style="stroke:#000000;fill:none"
         id="path386" />
      <path
         d="M -36.850394,1160.314961 A 8.503937,8.503937 -0.000000 1 0 -53.858268,1160.314961 8.503937,8.503937 -0.000000 1 0 -36.850394,1160.314961 z"
         style="stroke:#000000;fill:none"
         id="path388" />
      <path
         d="M -41.952756,1160.314961 A 3.401575,3.401575 -0.000000 1 0 -48.755906,1160.314961 3.401575,3.401575 -0.000000 1 0 -41.952756,1160.314961 z"
         style="stroke:#000000;fill:none"
         id="path390" />
      <path
         d="M -36.850394,1084.724409 A 8.503937,8.503937 -0.000000 1 0 -53.858268,1084.724409 8.503937,8.503937 -0.000000 1 0 -36.850394,1084.724409 z"
         style="stroke:#000000;fill:none"
         id="path392" />
      <path
         d="M -41.952756,1084.724409 A 3.401575,3.401575 -0.000000 1 0 -48.755906,1084.724409 3.401575,3.401575 -0.000000 1 0 -41.952756,1084.724409 z"
         style="stroke:#000000;fill:none"
         id="path394" />
    </symbol>
  </defs>
  <g
     inkscape:groupmode="layer"
     inkscape:label="0"
     id="g401">
    <use
       transform="translate(0.000000, 0.000000)"
       xlink:href="#FUSION"
       id="use399" />
  </g>
</svg>
