G04 #@! TF.GenerationSoftware,KiCad,Pcbnew,6.0.1-79c1e3a40b~116~ubuntu20.04.1*
G04 #@! TF.CreationDate,2022-01-22T14:27:32+01:00*
G04 #@! TF.ProjectId,xy_stage,78795f73-7461-4676-952e-6b696361645f,rev?*
G04 #@! TF.SameCoordinates,Original*
G04 #@! TF.FileFunction,Profile,NP*
%FSLAX46Y46*%
G04 Gerber Fmt 4.6, Leading zero omitted, Abs format (unit mm)*
G04 Created by KiCad (PCBNEW 6.0.1-79c1e3a40b~116~ubuntu20.04.1) date 2022-01-22 14:27:32*
%MOMM*%
%LPD*%
G01*
G04 APERTURE LIST*
G04 #@! TA.AperFunction,Profile*
%ADD10C,0.050000*%
G04 #@! TD*
G04 APERTURE END LIST*
D10*
X117303035Y-122772310D02*
X122450000Y-117625000D01*
X122450000Y-82375000D02*
X117303035Y-77227690D01*
X122450000Y-117625000D02*
X122450000Y-82375000D01*
X85800000Y-76050023D02*
X114200000Y-76050000D01*
X96000000Y-80300000D02*
X85525000Y-80300000D01*
X87600000Y-95650000D02*
X87599999Y-87000000D01*
X86600001Y-109000000D02*
X86600001Y-100350000D01*
X87599999Y-87000000D02*
G75*
G03*
X86600001Y-87000000I-499999J0D01*
G01*
X92700000Y-111399999D02*
X86300000Y-111399999D01*
X92300000Y-110400001D02*
X86300000Y-110400001D01*
X95000000Y-109100000D02*
X95000000Y-103900000D01*
X121900000Y-112650000D02*
G75*
G03*
X121900000Y-112650000I-900000J0D01*
G01*
X86300000Y-85599999D02*
G75*
G03*
X85799999Y-86100000I0J-500001D01*
G01*
X115200000Y-86100001D02*
G75*
G03*
X113700000Y-84600001I-1500001J-1D01*
G01*
X114200001Y-86100001D02*
G75*
G03*
X113700000Y-85600000I-500001J0D01*
G01*
X113700000Y-84600001D02*
X107300000Y-84600001D01*
X113700000Y-85600000D02*
X107725000Y-85600000D01*
X92700000Y-84600000D02*
X86300000Y-84600000D01*
X115200000Y-99500000D02*
X113399999Y-99500000D01*
X107200000Y-96500000D02*
X112400001Y-96500000D01*
X102349999Y-118450001D02*
X102350000Y-117200000D01*
X96000000Y-118000001D02*
X85525000Y-118000000D01*
X104000000Y-79300001D02*
X114925000Y-79300001D01*
X104000000Y-80300001D02*
X114475000Y-80300001D01*
X114475000Y-80300000D02*
X118400000Y-84225000D01*
X118400000Y-84225000D02*
X118400000Y-114075000D01*
X114925000Y-79300000D02*
X119400000Y-83775000D01*
X119400000Y-83775000D02*
X119400000Y-114500000D01*
X114900000Y-119000000D02*
X119400000Y-114500000D01*
X104000000Y-119000000D02*
X114900000Y-119000000D01*
X114475000Y-118000000D02*
X118400000Y-114075000D01*
X104000000Y-118000000D02*
X114475000Y-118000000D01*
X85225000Y-97125000D02*
X85225000Y-96049999D01*
X101950001Y-118849999D02*
G75*
G03*
X102349999Y-118450001I199999J199999D01*
G01*
X85225001Y-99950001D02*
G75*
G03*
X85624999Y-100349999I199999J-199999D01*
G01*
X86600001Y-100350000D02*
X85624999Y-100349999D01*
X99500000Y-87300000D02*
X98500000Y-87300000D01*
X107900000Y-97500000D02*
X107900000Y-98500000D01*
X107200000Y-97500000D02*
X107900000Y-97500000D01*
X107200000Y-97500000D02*
X107200000Y-96500000D01*
X107900000Y-98500000D02*
X107200000Y-98500001D01*
X107200000Y-99500000D02*
X107200000Y-98500001D01*
X100549999Y-116200002D02*
X113000000Y-116200000D01*
X87599997Y-108999999D02*
X87599997Y-100350000D01*
X90900000Y-88000000D02*
G75*
G03*
X90900000Y-88000000I-900000J0D01*
G01*
X85799999Y-123950000D02*
G75*
G03*
X82696967Y-122772310I-1774999J1D01*
G01*
X117303035Y-122772310D02*
G75*
G03*
X114200000Y-123950000I-1328034J-1177691D01*
G01*
X87950001Y-97450001D02*
G75*
G03*
X87950001Y-98550000I2299985J-550000D01*
G01*
X87950001Y-95650001D02*
X87600000Y-95650000D01*
X87950001Y-95650001D02*
X87950001Y-97450001D01*
X100500000Y-80000000D02*
X99500000Y-80000000D01*
X86600001Y-109000000D02*
G75*
G03*
X87599999Y-109000000I499999J0D01*
G01*
X100500000Y-79300000D02*
X100500000Y-80000000D01*
X98500000Y-79300000D02*
X99499999Y-79300000D01*
X113700000Y-111400000D02*
X107300000Y-111400000D01*
X96000000Y-79300000D02*
X85125000Y-79300000D01*
X98500000Y-87300000D02*
X98500000Y-82099999D01*
X115200000Y-95000000D02*
X115199999Y-86100000D01*
X114500000Y-97500000D02*
X115200000Y-97499999D01*
X85624998Y-95650001D02*
G75*
G03*
X85225000Y-96049999I-199999J-199999D01*
G01*
X104000000Y-118000001D02*
G75*
G03*
X104000000Y-118999999I0J-499999D01*
G01*
X102600000Y-89300000D02*
X97400000Y-89300000D01*
X114200000Y-123950000D02*
X85800000Y-123950000D01*
X99500000Y-86600000D02*
X100500000Y-86600000D01*
X86600001Y-87000000D02*
X86600001Y-95650000D01*
X85100000Y-119000000D02*
X80625000Y-114525000D01*
X92700000Y-111400000D02*
X95000000Y-109100000D01*
X94000000Y-108700000D02*
X94000001Y-103500000D01*
X86300000Y-84600000D02*
G75*
G03*
X84800000Y-86100000I1J-1500001D01*
G01*
X85525000Y-118000000D02*
X81625000Y-114100000D01*
X113700000Y-110400000D02*
X107725000Y-110400000D01*
X79900000Y-112650000D02*
G75*
G03*
X79900000Y-112650000I-900000J0D01*
G01*
X101500000Y-87300000D02*
X100500000Y-87300000D01*
X94000001Y-103500000D02*
X97000000Y-100500000D01*
X97400000Y-89300000D02*
X92700000Y-84600000D01*
X82825000Y-97524999D02*
X82825001Y-98525001D01*
X97650001Y-118450001D02*
G75*
G03*
X98049999Y-118849999I199999J-199999D01*
G01*
X83225000Y-97125000D02*
G75*
G03*
X82825002Y-97524998I-199999J-199999D01*
G01*
X112400001Y-87000000D02*
X112400001Y-96500000D01*
X81625000Y-84200000D02*
X81625000Y-114100000D01*
X103000000Y-100500000D02*
X106000000Y-103500000D01*
X114500000Y-98500000D02*
X114500000Y-97500000D01*
X107300000Y-84600000D02*
X102600000Y-89300000D01*
X85799999Y-101900000D02*
X85799999Y-109900000D01*
X114200001Y-95000000D02*
G75*
G03*
X115199999Y-95000000I499999J0D01*
G01*
X112400001Y-109000000D02*
X112400001Y-99500000D01*
X85799999Y-101900000D02*
G75*
G03*
X84800001Y-101900000I-499999J0D01*
G01*
X96000000Y-118999999D02*
G75*
G03*
X96000000Y-118000001I0J499999D01*
G01*
X113700000Y-111400000D02*
G75*
G03*
X115200000Y-109900000I-1J1500001D01*
G01*
X92300000Y-110400000D02*
X94000000Y-108700000D01*
X97400000Y-101500000D02*
X95000000Y-103900000D01*
X105000000Y-109100000D02*
X105000000Y-103900000D01*
X113399999Y-109000000D02*
X113399999Y-99500000D01*
X87000000Y-116200001D02*
X99450001Y-116199999D01*
X99500000Y-87300000D02*
X99500000Y-86600000D01*
X106000000Y-103500000D02*
X106000000Y-108675000D01*
X113000000Y-117199999D02*
G75*
G03*
X113000000Y-116200001I0J499999D01*
G01*
X99524999Y-121374999D02*
X100525001Y-121374999D01*
X106000000Y-108675000D02*
X107725000Y-110400000D01*
X99125000Y-118850000D02*
X99125001Y-120975001D01*
X113000000Y-117200000D02*
X102350000Y-117200000D01*
X115200000Y-96500000D02*
X115200000Y-97499999D01*
X99450001Y-116199999D02*
G75*
G03*
X100550000Y-116199999I550000J2299985D01*
G01*
X115200000Y-98500000D02*
X115200000Y-99500000D01*
X87950001Y-100350000D02*
X87599997Y-100350000D01*
X80625000Y-83800000D02*
X80625000Y-114525000D01*
X101950001Y-118849999D02*
X100925000Y-118850000D01*
X82696967Y-77227690D02*
X77550000Y-82375000D01*
X100525001Y-121374999D02*
G75*
G03*
X100924999Y-120975001I199999J199999D01*
G01*
X84800001Y-109900000D02*
G75*
G03*
X86300000Y-111399999I1500001J2D01*
G01*
X115200000Y-98500000D02*
X114500000Y-98500000D01*
X87000000Y-81100001D02*
G75*
G03*
X87000000Y-82099999I0J-499999D01*
G01*
X87950001Y-98550000D02*
X87950001Y-100350000D01*
X113000000Y-82100000D02*
G75*
G03*
X113000000Y-81100002I0J499999D01*
G01*
X114200001Y-101000000D02*
X114200001Y-109900000D01*
X85525000Y-80300000D02*
X81625000Y-84200000D01*
X107300000Y-111400000D02*
X105000000Y-109100000D01*
X113399999Y-87000000D02*
G75*
G03*
X112400001Y-87000000I-499999J0D01*
G01*
X84800001Y-94100000D02*
G75*
G03*
X85799999Y-94100000I499999J0D01*
G01*
X87000000Y-82099999D02*
X98500000Y-82099999D01*
X90900000Y-108000000D02*
G75*
G03*
X90900000Y-108000000I-900000J0D01*
G01*
X113700000Y-110400000D02*
G75*
G03*
X114200000Y-109900000I-1J500001D01*
G01*
X113399999Y-87000000D02*
X113399999Y-96500000D01*
X85225000Y-97125000D02*
X83225000Y-97125000D01*
X102600000Y-101500000D02*
X97400000Y-101500000D01*
X115199999Y-101000000D02*
X115199999Y-109900000D01*
X110900000Y-88000000D02*
G75*
G03*
X110900000Y-88000000I-900000J0D01*
G01*
X84800001Y-94100000D02*
X84800001Y-86100000D01*
X113400000Y-96500000D02*
X115200000Y-96500000D01*
X84800001Y-101900000D02*
X84800001Y-109900000D01*
X85799999Y-109900000D02*
G75*
G03*
X86300000Y-110400001I500001J0D01*
G01*
X112400001Y-109000000D02*
G75*
G03*
X113399999Y-109000000I499999J0D01*
G01*
X114199999Y-76050000D02*
G75*
G03*
X117303035Y-77227690I1775002J1D01*
G01*
X100500000Y-79300000D02*
X101500000Y-79300000D01*
X107725000Y-85600000D02*
X103025000Y-90300000D01*
X103025000Y-90300000D02*
X97000000Y-90300000D01*
X97000000Y-100500000D02*
X103000000Y-100500000D01*
X99125001Y-120975001D02*
G75*
G03*
X99524999Y-121374999I199999J-199999D01*
G01*
X85625000Y-95650001D02*
X86600001Y-95650000D01*
X100925000Y-118850000D02*
X100924999Y-120975001D01*
X85225001Y-99950001D02*
X85225000Y-98925000D01*
X99500000Y-80000000D02*
X99499999Y-79300000D01*
X85799999Y-94100000D02*
X85799999Y-86100000D01*
X92300000Y-85600000D02*
X86300000Y-85600000D01*
X114200001Y-95000000D02*
X114200001Y-86100000D01*
X101500000Y-79300000D02*
X101500000Y-81100000D01*
X104000000Y-79300001D02*
G75*
G03*
X104000000Y-80299999I0J-499999D01*
G01*
X101500000Y-82100000D02*
X101500000Y-87300000D01*
X77550000Y-82375000D02*
X77550000Y-117625000D01*
X97650000Y-117200000D02*
X97650001Y-118450001D01*
X83224999Y-98924999D02*
X85225000Y-98925000D01*
X98500000Y-81100001D02*
X98500000Y-79300000D01*
X85125000Y-79300000D02*
X80625000Y-83800000D01*
X82696968Y-77227689D02*
G75*
G03*
X85800000Y-76050000I1328032J1177690D01*
G01*
X98049999Y-118849999D02*
X99125000Y-118850000D01*
X96000000Y-80299999D02*
G75*
G03*
X96000000Y-79300001I0J499999D01*
G01*
X105000000Y-103900000D02*
X102600000Y-101500000D01*
X87000000Y-117199999D02*
X97650000Y-117200000D01*
X115199999Y-101000000D02*
G75*
G03*
X114200001Y-101000000I-499999J0D01*
G01*
X110900000Y-108000000D02*
G75*
G03*
X110900000Y-108000000I-900000J0D01*
G01*
X96000000Y-118999999D02*
X85100000Y-119000000D01*
X97000000Y-90300000D02*
X92300000Y-85600000D01*
X100500000Y-86600000D02*
X100500000Y-87300000D01*
X113000000Y-82100000D02*
X101500000Y-82100000D01*
X87000000Y-116200001D02*
G75*
G03*
X87000000Y-117199999I0J-499999D01*
G01*
X87000000Y-81100001D02*
X98500000Y-81100001D01*
X82825001Y-98525001D02*
G75*
G03*
X83224999Y-98924999I199999J-199999D01*
G01*
X100900000Y-77500000D02*
G75*
G03*
X100900000Y-77500000I-900000J0D01*
G01*
X113000000Y-81100000D02*
X101500000Y-81100000D01*
X112400000Y-99500000D02*
X107200000Y-99500000D01*
X77550000Y-117625000D02*
X82696967Y-122772310D01*
M02*
